# xmcd CD database file
#
# Track frame offsets:
#	150
#	49923
#	106348
#	138542
#	170959
#	221056
#
# Disc length: 3486 seconds
#
# Revision: 1
# Processed by: cddbd v1.4PL0 Copyright (c) Steve Scherf et al.
# Submitted via: CDex 1.50
#
DISCID=5e0d9c06
DTITLE=Ronald Shannon Jackson and The Decoding Society - Live At Greenwich House
DYEAR=2000
DGENRE=Jazz
TTITLE0=Flatbush Roti
TTITLE1=Erri Moments
TTITLE2=Sacred Language
TTITLE3=Boiling Cabbage
TTITLE4=Chocolate Envy
TTITLE5=The Janitor
EXTD=YEAR: 2000
EXTT0=
EXTT1=
EXTT2=
EXTT3=
EXTT4=
EXTT5=
PLAYORDER=
